<svg width="37" height="9" viewBox="0 0 37 9" fill="none" xmlns="http://www.w3.org/2000/svg">
<path d="M3.99965 8.06411C3.00035 8.06411 2.14119 7.7107 1.42219 7.00388C0.703177 6.28487 0.343673 5.41963 0.343673 4.40814C0.343673 3.40884 0.703177 2.55578 1.42219 1.84896C2.14119 1.12995 3.00035 0.770446 3.99965 0.770446C4.99895 0.770446 5.8581 1.12995 6.57711 1.84896C7.29612 2.55578 7.65562 3.40884 7.65562 4.40814C7.65562 5.0784 7.48501 5.69382 7.14379 6.25441C6.81475 6.8028 6.37603 7.24152 5.82763 7.57056C5.27924 7.8996 4.66991 8.06411 3.99965 8.06411ZM18.5778 8.06411C17.5785 8.06411 16.7194 7.7107 16.0004 7.00388C15.2814 6.28487 14.9219 5.41963 14.9219 4.40814C14.9219 3.40884 15.2814 2.55578 16.0004 1.84896C16.7194 1.12995 17.5785 0.770446 18.5778 0.770446C19.5771 0.770446 20.4363 1.12995 21.1553 1.84896C21.8743 2.55578 22.2338 3.40884 22.2338 4.40814C22.2338 5.0784 22.0632 5.69382 21.722 6.25441C21.3929 6.8028 20.9542 7.24152 20.4058 7.57056C19.8574 7.8996 19.2481 8.06411 18.5778 8.06411ZM33.156 8.06411C32.1567 8.06411 31.2976 7.7107 30.5786 7.00388C29.8596 6.28487 29.5001 5.41963 29.5001 4.40814C29.5001 3.40884 29.8596 2.55578 30.5786 1.84896C31.2976 1.12995 32.1567 0.770446 33.156 0.770446C34.1553 0.770446 35.0145 1.12995 35.7335 1.84896C36.4525 2.55578 36.812 3.40884 36.812 4.40814C36.812 5.0784 36.6414 5.69382 36.3002 6.25441C35.9711 6.8028 35.5324 7.24152 34.984 7.57056C34.4356 7.8996 33.8263 8.06411 33.156 8.06411Z" fill="white"/>
</svg>
