<svg width="22" height="18" viewBox="0 0 22 18" fill="none" xmlns="http://www.w3.org/2000/svg">
<path d="M13.9493 1.78906V3.89284M13.9493 8.10039V10.2042M13.9493 14.4117V16.5155M3.43043 1.78906C2.26855 1.78906 1.32666 2.73095 1.32666 3.89284V7.0485C2.48854 7.0485 3.43043 7.99039 3.43043 9.15228C3.43043 10.3142 2.48854 11.2561 1.32666 11.2561V14.4117C1.32666 15.5736 2.26855 16.5155 3.43043 16.5155H18.1569C19.3187 16.5155 20.2606 15.5736 20.2606 14.4117V11.2561C19.0987 11.2561 18.1569 10.3142 18.1569 9.15228C18.1569 7.99039 19.0987 7.0485 20.2606 7.0485V3.89284C20.2606 2.73095 19.3187 1.78906 18.1569 1.78906H3.43043Z" stroke="url(#paint0_linear_683_3514)" stroke-width="1.62023" stroke-linecap="round" stroke-linejoin="round"/>
<defs>
<linearGradient id="paint0_linear_683_3514" x1="10.7936" y1="1.78906" x2="10.7936" y2="16.5155" gradientUnits="userSpaceOnUse">
<stop stop-color="#E85EFF"/>
<stop offset="1" stop-color="#6E1B93"/>
</linearGradient>
</defs>
</svg>
