<svg width="19" height="20" viewBox="0 0 19 20" fill="none" xmlns="http://www.w3.org/2000/svg">
<path fill-rule="evenodd" clip-rule="evenodd" d="M9.5292 11.3316L8.2144 10.3953C7.66974 10.0084 7.5475 9.25879 7.93868 8.72145C8.32986 8.18275 9.08777 8.06051 9.63107 8.44874L10.9459 9.38507C11.4905 9.77196 11.6141 10.5216 11.2216 11.0589C10.8304 11.5963 10.0725 11.7185 9.5292 11.3316ZM14.4896 11.9079L15.147 12.3768L18.7966 7.3633C19.1444 6.88506 19.0357 6.21741 18.5508 5.8735L17.0214 4.78269C16.6628 4.52879 16.167 4.48177 15.8098 4.73701C15.0899 5.25152 14.0903 5.27973 13.331 4.73836C12.5717 4.19698 12.281 3.2499 12.5459 2.41298C12.6777 1.99654 12.4753 1.54651 12.1181 1.29127L10.5873 0.201799C10.1037 -0.143447 9.42869 -0.0346342 9.07962 0.443605L5.43132 5.45706L6.08872 5.92589C6.63203 6.31278 6.75563 7.06238 6.36445 7.59973C5.97327 8.13708 5.21536 8.25933 4.67069 7.87244L4.01329 7.4036L0.203363 12.636C-0.144352 13.1156 -0.035691 13.7819 0.449209 14.1272L1.97861 15.2166C2.3372 15.4719 2.83296 15.5189 3.19019 15.2637C3.91007 14.7491 4.90975 14.7209 5.66902 15.2623C6.42829 15.8037 6.71896 16.7494 6.45409 17.5877C6.32234 18.0028 6.52472 18.4542 6.88195 18.7094L8.41271 19.7989C8.89625 20.1428 9.57131 20.0353 9.92038 19.5557L13.729 14.3233L13.0716 13.8545C12.5282 13.4676 12.4046 12.718 12.7958 12.1806C13.187 11.6433 13.9449 11.521 14.4896 11.9079Z" fill="#4C32CC"/>
</svg>
