<svg width="14" height="14" viewBox="0 0 14 14" fill="none" xmlns="http://www.w3.org/2000/svg">
<path fill-rule="evenodd" clip-rule="evenodd" d="M3.75028 2.34257C3.37583 2.43518 3.11296 2.78026 3.11296 3.17702V6.67275V8.81444H2.59289C1.42037 8.81444 0.350915 9.68496 0.234608 10.8879C0.100336 12.2722 1.15088 13.439 2.46524 13.439H3.52334C4.72707 13.439 5.70196 12.433 5.70196 11.193V10.7699V8.81444V6.02839L10.9093 4.74844V7.56764H10.5424C9.36893 7.56764 8.30042 8.43718 8.18317 9.64109C8.0489 11.0253 9.09944 12.1922 10.4138 12.1922H11.3197C12.5234 12.1922 13.4983 11.1862 13.4983 9.94524V9.52217V7.56764V4.10408V1.02265C13.4983 0.467002 12.9943 0.0575745 12.4704 0.188201L3.75028 2.34257Z" fill="white"/>
</svg>
