<svg width="21" height="20" viewBox="0 0 21 20" fill="none" xmlns="http://www.w3.org/2000/svg">
<path d="M3.69257 15.6183C5.70304 14.4819 8.02572 13.8333 10.4999 13.8333C12.974 13.8333 15.2967 14.4819 17.3072 15.6183M13.4686 7.89583C13.4686 9.53543 12.1395 10.8646 10.4999 10.8646C8.86028 10.8646 7.53113 9.53543 7.53113 7.89583C7.53113 6.25624 8.86028 4.92708 10.4999 4.92708C12.1395 4.92708 13.4686 6.25624 13.4686 7.89583ZM19.4061 9.875C19.4061 14.7938 15.4187 18.7812 10.4999 18.7812C5.58109 18.7812 1.59363 14.7938 1.59363 9.875C1.59363 4.95621 5.58109 0.96875 10.4999 0.96875C15.4187 0.96875 19.4061 4.95621 19.4061 9.875Z" stroke="url(#paint0_linear_741_2044)" stroke-width="1.52426" stroke-linecap="round" stroke-linejoin="round"/>
<defs>
<linearGradient id="paint0_linear_741_2044" x1="-0.734384" y1="-6.75715" x2="24.6925" y2="-5.70334" gradientUnits="userSpaceOnUse">
<stop stop-color="#E85EFF"/>
<stop offset="1" stop-color="#6E1B93"/>
</linearGradient>
</defs>
</svg>
