
<svg width="34" height="22" viewBox="0 0 34 22" fill="none" xmlns="http://www.w3.org/2000/svg">
<path d="M0.414551 4C0.414551 2.89543 1.30998 2 2.41455 2H4.41455C5.51912 2 6.41455 2.89543 6.41455 4V14C6.41455 15.1046 7.30998 16 8.41455 16H22.4146C23.5191 16 24.4146 15.1046 24.4146 14V4C24.4146 2.89543 25.31 2 26.4146 2H28.4146C29.5191 2 30.4146 2.89543 30.4146 4V17C30.4146 19.7614 28.176 22 25.4146 22H5.41455C2.65313 22 0.414551 19.7614 0.414551 17V4Z" fill="#C4C4C4"/>
<path d="M7.41455 3C7.41455 1.34315 8.7577 0 10.4146 0H20.4146C22.0714 0 23.4146 1.34315 23.4146 3V14C23.4146 14.5523 22.9668 15 22.4146 15H8.41455C7.86227 15 7.41455 14.5523 7.41455 14V3Z" fill="#C4C4C4"/>
</svg>
