<svg width="34" height="22" viewBox="0 0 34 22" fill="none" xmlns="http://www.w3.org/2000/svg">
<path d="M0.728516 4C0.728516 2.89543 1.62395 2 2.72852 2H4.72852C5.83309 2 6.72852 2.89543 6.72852 4V14C6.72852 15.1046 7.62395 16 8.72852 16H22.7285C23.8331 16 24.7285 15.1046 24.7285 14V4C24.7285 2.89543 25.6239 2 26.7285 2H28.7285C29.8331 2 30.7285 2.89543 30.7285 4V17C30.7285 19.7614 28.4899 22 25.7285 22H5.72852C2.96709 22 0.728516 19.7614 0.728516 17V4Z" fill="#09FBD3"/>
<path d="M7.72852 3C7.72852 1.34315 9.07166 0 10.7285 0H20.7285C22.3854 0 23.7285 1.34315 23.7285 3V14C23.7285 14.5523 23.2808 15 22.7285 15H8.72852C8.17623 15 7.72852 14.5523 7.72852 14V3Z" fill="#09FBD3"/>
</svg>
