
<svg width="19" height="20" viewBox="0 0 19 20" fill="none" xmlns="http://www.w3.org/2000/svg">
<path fill-rule="evenodd" clip-rule="evenodd" d="M11.2682 1.76549C10.8181 -0.0884972 8.1814 -0.0884981 7.73131 1.76549C7.44055 2.96315 6.06841 3.53151 5.01595 2.89023C3.38672 1.89752 1.52228 3.76196 2.51499 5.39119C3.15626 6.44366 2.5879 7.8158 1.39025 8.10655C-0.463742 8.55664 -0.463741 11.1934 1.39025 11.6434C2.5879 11.9342 3.15626 13.3063 2.51499 14.3588C1.52228 15.988 3.38672 17.8525 5.01595 16.8598C6.06841 16.2185 7.44055 16.7869 7.73131 17.9845C8.1814 19.8385 10.8181 19.8385 11.2682 17.9845C11.559 16.7869 12.9311 16.2185 13.9836 16.8598C15.6128 17.8525 17.4772 15.988 16.4845 14.3588C15.8432 13.3063 16.4116 11.9342 17.6093 11.6434C19.4633 11.1934 19.4633 8.55664 17.6093 8.10655C16.4116 7.8158 15.8432 6.44366 16.4845 5.39119C17.4772 3.76196 15.6128 1.89752 13.9836 2.89023C12.9311 3.53151 11.559 2.96315 11.2682 1.76549ZM9.49975 13.4375C11.4673 13.4375 13.0623 11.8425 13.0623 9.875C13.0623 7.90748 11.4673 6.3125 9.49975 6.3125C7.53224 6.3125 5.93726 7.90748 5.93726 9.875C5.93726 11.8425 7.53224 13.4375 9.49975 13.4375Z" fill="url(#paint0_linear_741_2353)"/>
<defs>
<linearGradient id="paint0_linear_741_2353" x1="-2.48346" y1="-7.86596" x2="24.6385" y2="-6.74189" gradientUnits="userSpaceOnUse">
<stop stop-color="#E85EFF"/>
<stop offset="1" stop-color="#6E1B93"/>
</linearGradient>
</defs>
</svg>
