<svg width="34" height="22" viewBox="0 0 34 22" fill="none" xmlns="http://www.w3.org/2000/svg">
<path d="M0.5 4C0.5 2.89543 1.39543 2 2.5 2H4.5C5.60457 2 6.5 2.89543 6.5 4V14C6.5 15.1046 7.39543 16 8.5 16H22.5C23.6046 16 24.5 15.1046 24.5 14V4C24.5 2.89543 25.3954 2 26.5 2H28.5C29.6046 2 30.5 2.89543 30.5 4V17C30.5 19.7614 28.2614 22 25.5 22H5.5C2.73858 22 0.5 19.7614 0.5 17V4Z" fill="#B6116B"/>
<path d="M7.5 3C7.5 1.34315 8.84315 0 10.5 0H20.5C22.1569 0 23.5 1.34315 23.5 3V14C23.5 14.5523 23.0523 15 22.5 15H8.5C7.94772 15 7.5 14.5523 7.5 14V3Z" fill="#B6116B"/>
</svg>
