<svg width="16" height="17" viewBox="0 0 16 17" fill="none" xmlns="http://www.w3.org/2000/svg">
<path fill-rule="evenodd" clip-rule="evenodd" d="M8.0683 9.71779L7.03057 8.97058C6.60068 8.66184 6.5042 8.06364 6.81294 7.63483C7.12169 7.20494 7.71989 7.10738 8.1487 7.4172L9.18643 8.16441C9.61632 8.47316 9.71388 9.07136 9.40406 9.50017C9.09531 9.92899 8.49711 10.0265 8.0683 9.71779M11.9833 10.1777L12.5022 10.5518L15.3827 6.551C15.6572 6.16935 15.5714 5.63655 15.1887 5.36211L13.9816 4.49161C13.6986 4.289 13.3073 4.25148 13.0253 4.45516C12.4572 4.86575 11.6681 4.88827 11.0689 4.45624C10.4696 4.02421 10.2402 3.26842 10.4492 2.60054C10.5532 2.26821 10.3935 1.90908 10.1115 1.70539L8.90335 0.835967C8.52171 0.560453 7.98891 0.647288 7.71339 1.02893L4.8339 5.02978L5.35277 5.40392C5.78158 5.71266 5.87914 6.31086 5.57039 6.73968C5.26164 7.16849 4.66345 7.26605 4.23356 6.9573L3.71469 6.58316L0.707628 10.7587C0.433186 11.1415 0.518949 11.6732 0.901667 11.9487L2.10878 12.8181C2.3918 13.0218 2.78309 13.0593 3.06504 12.8556C3.63322 12.4451 4.42224 12.4225 5.02151 12.8546C5.62078 13.2866 5.85019 14.0413 5.64114 14.7103C5.53716 15.0415 5.69689 15.4017 5.97884 15.6054L7.18702 16.4748C7.56867 16.7493 8.10147 16.6635 8.37698 16.2808L11.383 12.1052L10.8641 11.7311C10.4353 11.4223 10.3377 10.8241 10.6465 10.3953C10.9552 9.96651 11.5534 9.86895 11.9833 10.1777" fill="#C1C1C1"/>
</svg>
